PathFileType	4	(X/Y/Z)	/Users/niels/Desktop/University/Third Semester/Perception and Action/Exam/Gymnastics Motion Tracking/Code for Gym Tracking/Analyzed Data/Webcam_Backflip/id2002_1_trajectory_Sports2D/id2002_1_trajectory_Sports2D_px_person00.trc
DataRate	CameraRate	NumFrames	NumMarkers	Units	OrigDataRate	OrigDataStartFrame	OrigNumFrames
29.795918367346935	29.795918367346935	9	22	m	29.795918367346935	18	147
Frame#	Time	Hip			RHip			RKnee			RAnkle			RBigToe			RSmallToe			RHeel			LHip			LKnee			LAnkle			LBigToe			LSmallToe			LHeel			Neck			Head			Nose			RShoulder			RElbow			RWrist			LShoulder			LElbow			LWrist		
		X1	Y1	Z1	X2	Y2	Z2	X3	Y3	Z3	X4	Y4	Z4	X5	Y5	Z5	X6	Y6	Z6	X7	Y7	Z7	X8	Y8	Z8	X9	Y9	Z9	X10	Y10	Z10	X11	Y11	Z11	X12	Y12	Z12	X13	Y13	Z13	X14	Y14	Z14	X15	Y15	Z15	X16	Y16	Z16	X17	Y17	Z17	X18	Y18	Z18	X19	Y19	Z19	X20	Y20	Z20	X21	Y21	Z21	X22	Y22	Z22
18	0.6041095890410959	1.0332507404082842	-0.5796436920403826	0.0	1.0280780751946408	-0.5807266065122937	0.0	1.2321964914697285	-0.9023642893680406	0.0	1.1856296862085585	-1.0687980383519489	0.0	1.53666650390625	-1.0905761718750002	0.0	1.534264892578125	-1.0655229492187501	0.0	1.2592447382407654	-1.0718155334672315	0.0	1.023782442405602	-0.5915630310606156	0.0	1.0143913418957533	-0.9515294216675224	0.0	0.991604084721643	-1.0782473552696095	0.0	1.5178310546875	-1.002380859375	0.0	1.5208022460937505	-0.96375537109375	0.0	0.9620773429078602	-1.0782070425205619	0.0	0.9961177231262864	-0.15072913097275425	0.0	1.0450082986748641	-0.015455284365216414	0.0	1.0527761236823914	-0.06036037187211359	0.0	0.9298330325263895	-0.18525593336920987	0.0	0.8901491135914581	-0.3847824481174437	0.0	0.8837435850199467	-0.6143775799652542	0.0	1.0379753985906122	-0.21986916272903514	0.0	1.0307749466461202	-0.4161018247663106	0.0	1.0816285313702063	-0.5918580028348986	0.0
19	0.6376712328767123	1.0322647365059836	-0.5792436885074304	0.0	1.0273185839246255	-0.579908707964507	0.0	1.2319288028749833	-0.9034409613317044	0.0	1.2027201713510696	-1.0696656096055233	0.0	1.53666650390625	-1.0905761718750002	0.0	1.5342648925781253	-1.0655229492187501	0.0	1.259340387764559	-1.0717892228848673	0.0	1.020607883225356	-0.5913115837219013	0.0	1.013715728446161	-0.953018231223969	0.0	0.9913120205782104	-1.0775596248744708	0.0	1.5178310546875	-1.002380859375	0.0	1.5208022460937505	-0.96375537109375	0.0	0.9621167286808213	-1.0781783860493463	0.0	0.9958720250825268	-0.15284552789022846	0.0	1.0451592890300865	-0.01530801948948774	0.0	1.0520940332566937	-0.06320896679961653	0.0	0.9280982237660643	-0.1861173750723828	0.0	0.883309475522256	-0.3824715739104583	0.0	0.876958817995227	-0.6112933476409736	0.0	1.0388348316273845	-0.22341732483996388	0.0	1.0296592757013026	-0.4172568404644133	0.0	1.0817669332220863	-0.5919388641197765	0.0
20	0.6712328767123288	1.0322411892866326	-0.5794349715335027	0.0	1.0283626378571096	-0.579891343261494	0.0	1.2298757234634001	-0.9069778835975716	0.0	1.2187754238559851	-1.070248542479933	0.0	1.53666650390625	-1.0905761718750002	0.0	1.5342648925781255	-1.0655229492187501	0.0	1.2595072706545007	-1.0717965534673406	0.0	1.0186019150062857	-0.5919186595643074	0.0	1.0127549399122544	-0.9546927294784883	0.0	0.9908511184837159	-1.0768598865785328	0.0	1.5178310546875	-1.002380859375	0.0	1.5208022460937505	-0.96375537109375	0.0	0.9622001519326051	-1.0781391797019824	0.0	0.9960084856525303	-0.15491940219119982	0.0	1.0458695268685698	-0.015168279224894375	0.0	1.052005255287517	-0.06606703412069384	0.0	0.9271984455862057	-0.18690320220037637	0.0	0.8785003255086172	-0.38087291862401745	0.0	0.874549537232405	-0.6091832678935235	0.0	1.039294993156916	-0.22656384871672233	0.0	1.0283338516035927	-0.4186703159865507	0.0	1.0818122086445692	-0.5920830462950714	0.0
21	0.7047945205479452	1.0332904719951084	-0.5796596078653216	0.0	1.0306751790342688	-0.5802204418352871	0.0	1.226819891303759	-0.912101564945981	0.0	1.2330215975035614	-1.0703646328243566	0.0	1.53666650390625	-1.0905761718750002	0.0	1.5342648925781257	-1.0655229492187501	0.0	1.2597376340204756	-1.0718805872873722	0.0	1.0187298964291867	-0.5928479610855187	0.0	1.0118107149264286	-0.9563481177271242	0.0	0.9904204106269461	-1.076019374847524	0.0	1.5178310546875	-1.002380859375	0.0	1.5208022460937505	-0.96375537109375	0.0	0.9623357264496234	-1.078100043178597	0.0	0.9964982688363861	-0.156820337128427	0.0	1.047108247208943	-0.014937337159464284	0.0	1.0524577496343348	-0.06878005856114201	0.0	0.9270504153274384	-0.18749590708735292	0.0	0.8759064289285302	-0.37972368182381755	0.0	0.8764729657754998	-0.6076288200626676	0.0	1.0393992575881974	-0.2289546548251869	0.0	1.026450584929378	-0.4199561748910675	0.0	1.0818362461796978	-0.5922975948132528	0.0
22	0.7383561643835617	1.03520033197284	-0.5795882971850019	0.0	1.033545063492144	-0.5805624677238219	0.0	1.2234929743852767	-0.9176273942608423	0.0	1.2447840555603331	-1.0698915159225306	0.0	1.53666650390625	-1.0905761718750002	0.0	1.5342648925781257	-1.0655229492187501	0.0	1.2599712037215418	-1.0720955051456997	0.0	1.0211691680125625	-0.5937341755622807	0.0	1.011065257322058	-0.9578721725330472	0.0	0.9901427270695037	-1.0748735064584527	0.0	1.5178310546875	-1.002380859375	0.0	1.5208022460937505	-0.96375537109375	0.0	0.9625090198141338	-1.0780866567580303	0.0	0.9972531384548885	-0.15846693693269068	0.0	1.0487990960773255	-0.014645511118893978	0.0	1.0534855085440509	-0.07126062918849282	0.0	0.9275780258747778	-0.1878576305960691	0.0	0.875587375105385	-0.37865146210132844	0.0	0.8826664913726476	-0.6062385570954967	0.0	1.0392546233950997	-0.23042862109943663	0.0	1.0239690711879181	-0.4207440457854085	0.0	1.0818587781271727	-0.5925935910124693	0.0
23	0.7719178082191781	1.0374380618501258	-0.5792698138213043	0.0	1.0363999152410057	-0.5807489829158288	0.0	1.2203353596471664	-0.9223109351768364	0.0	1.2535592145409469	-1.068893086626398	0.0	1.53666650390625	-1.0905761718749998	0.0	1.5342648925781255	-1.0655229492187501	0.0	1.2600598716155054	-1.0724870082368447	0.0	1.0250332449287398	-0.5944122229464316	0.0	1.0105516212684968	-0.9588890654831232	0.0	0.9899772401756817	-1.0733765647338007	0.0	1.5178310546875	-1.002380859375	0.0	1.5208022460937505	-0.96375537109375	0.0	0.9626604155939102	-1.0781443990385564	0.0	0.9981838830760549	-0.15983175961881949	0.0	1.0508357017492338	-0.014408586291517516	0.0	1.0550931189745143	-0.07348921717260758	0.0	0.9287327514632358	-0.18803279956336713	0.0	0.8774512071337647	-0.3774402249018963	0.0	0.8929875280096229	-0.6046848316635853	0.0	1.038970344640308	-0.2310350651042518	0.0	1.0211977196091848	-0.42074949148013296	0.0	1.0818414011480746	-0.5929473362631087	0.0
24	0.8054794520547945	1.039312277077985	-0.5791247705989854	0.0	1.0388889163846275	-0.5807743716673969	0.0	1.2173592409785479	-0.9252540660093516	0.0	1.2590745867036996	-1.0676022627878117	0.0	1.5366665039062497	-1.0905761718749987	0.0	1.534264892578125	-1.0655229492187497	0.0	1.2597395627124526	-1.073050384305658	0.0	1.0286742640940925	-0.5949338744852876	0.0	1.0101568011713744	-0.9589252420111382	0.0	0.9897052437676205	-1.0716836535515237	0.0	1.5178310546875	-1.002380859375	0.0	1.5208022460937505	-0.96375537109375	0.0	0.9626598076988333	-1.0783367062431468	0.0	0.9992393145404689	-0.1608895607405494	0.0	1.053070220380347	-0.014336246541536472	0.0	1.0571488692116273	-0.07546328900902968	0.0	0.9304275732873393	-0.1880840672450206	0.0	0.8811992064918402	-0.3760889767003498	0.0	0.9071410118191214	-0.6026440903082009	0.0	1.038604830672099	-0.23097351337953262	0.0	1.018557647861004	-0.4197974257146004	0.0	1.0816869889230456	-0.593250238629847	0.0
25	0.839041095890411	1.0401613858546392	-0.579796526246787	0.0	1.0407882377831639	-0.580854968249868	0.0	1.214255130079125	-0.926376347131923	0.0	1.2612153292142858	-1.066312753921976	0.0	1.536666503906249	-1.0905761718749967	0.0	1.5342648925781242	-1.0655229492187488	0.0	1.2586378840197336	-1.0736618760544072	0.0	1.0303365310041275	-0.5955607438658149	0.0	1.0097023991865093	-0.9578154897411599	0.0	0.9890502313031307	-1.0701070937320336	0.0	1.5178310546875	-1.002380859375	0.0	1.5208022460937505	-0.96375537109375	0.0	0.962338674150779	-1.0786883790618698	0.0	1.0004030683841032	-0.16160639627690523	0.0	1.055283295366631	-0.014453477980540102	0.0	1.0593702722692029	-0.07719876314838098	0.0	0.9325147545765062	-0.1880452744428527	0.0	0.886354402094468	-0.3746491905485127	0.0	0.9246849789208805	-0.5997517251890827	0.0	1.0381544781362706	-0.23047639352045363	0.0	1.0162021535028498	-0.41791098374242847	0.0	1.081251321632113	-0.5932560007384152	0.0
26	0.8726027397260274	1.0394368127880853	-0.5818119635785217	0.0	1.0418220073077724	-0.5813568284723019	0.0	1.2106885082387664	-0.9265721957831217	0.0	1.2599484094772209	-1.0652763798627791	0.0	1.536666503906248	-1.090576171874994	0.0	1.5342648925781226	-1.0655229492187472	0.0	1.2563632803853042	-1.0740845998632347	0.0	1.0287503731232224	-0.5965668772010522	0.0	1.0090486381986112	-0.955906468883669	0.0	0.9878913909158057	-1.068965971476056	0.0	1.5178310546875	-1.002380859375	0.0	1.5208022460937505	-0.96375537109375	0.0	0.9616433367208531	-1.0790801217420276	0.0	1.0016469602069094	-0.16199759903503913	0.0	1.057217538619959	-0.014656939745823555	0.0	1.061422132107699	-0.07870966824258736	0.0	0.9348351058186609	-0.18793928271393512	0.0	0.8924278886084505	-0.37307645689665175	0.0	0.945111801936639	-0.5955912491051139	0.0	1.0375983497582542	-0.22969894962876175	0.0	1.013906786385746	-0.41539765646363025	0.0	1.0803830363498135	-0.5925489176616984	0.0
